<?xml version="1.0" encoding="UTF-8" standalone="no"?>
<!DOCTYPE svg PUBLIC "-//W3C//DTD SVG 1.1//EN"
 "http://www.w3.org/Graphics/SVG/1.1/DTD/svg11.dtd">
<!-- Generated by graphviz version 2.40.1 (20161225.0304)
 -->
<!-- Title: oneDegreeRelationshipsDiagram Pages: 1 -->
<svg width="374pt" height="259pt"
 viewBox="0.00 0.00 374.00 259.20" xmlns="http://www.w3.org/2000/svg" xmlns:xlink="http://www.w3.org/1999/xlink">
<g id="graph0" class="graph" transform="scale(1 1) rotate(0) translate(4 255.2)">
<title>oneDegreeRelationshipsDiagram</title>
<polygon fill="#ffffff" stroke="transparent" points="-4,4 -4,-255.2 370,-255.2 370,4 -4,4"/>
<text text-anchor="middle" x="72.4936" y="-7.3" font-family="Helvetica,sans-Serif" font-size="11.00" fill="#000000">Generated by SchemaSpy</text>
<!-- commentaire -->
<g id="node1" class="node">
<title>commentaire</title>
<g id="a_node1"><a xlink:href="../../tables/commentaire.html" xlink:title="commentaire" target="_top">
<polygon fill="#ffffff" stroke="transparent" points="148,-84.7 148,-240.7 358,-240.7 358,-84.7 148,-84.7"/>
<polygon fill="#f5f5f5" stroke="transparent" points="150,-215.7 150,-238.7 356,-238.7 356,-215.7 150,-215.7"/>
<polygon fill="none" stroke="#000000" points="150,-215.7 150,-238.7 356,-238.7 356,-215.7 150,-215.7"/>
<text text-anchor="start" x="155" y="-224.8" font-family="Helvetica,sans-Serif" font-weight="bold" font-size="11.00" fill="#000000">commentaire</text>
<text text-anchor="start" x="321.0437" y="-223.8" font-family="Helvetica,sans-Serif" font-size="11.00" fill="#000000">[table]</text>
<polygon fill="none" stroke="#000000" points="150,-193.7 150,-215.7 245,-215.7 245,-193.7 150,-193.7"/>
<image xlink:href="../../images/primaryKeys.png" width="11px" height="12px" preserveAspectRatio="xMinYMin meet" x="155" y="-210.7"/>
<text text-anchor="start" x="170" y="-200.8" font-family="Helvetica,sans-Serif" font-size="11.00" fill="#000000">id</text>
<polygon fill="none" stroke="#000000" points="245,-193.7 245,-215.7 356,-215.7 356,-193.7 245,-193.7"/>
<text text-anchor="start" x="248" y="-201.4" font-family="Helvetica,sans-Serif" font-size="11.00" fill="#000000">int[10]</text>
<polygon fill="#ffffff" stroke="transparent" points="150,-171.7 150,-193.7 245,-193.7 245,-171.7 150,-171.7"/>
<polygon fill="none" stroke="#000000" points="150,-171.7 150,-193.7 245,-193.7 245,-171.7 150,-171.7"/>
<image xlink:href="../../images/foreignKeys.png" width="11px" height="12px" preserveAspectRatio="xMinYMin meet" x="155" y="-188.7"/>
<text text-anchor="start" x="170" y="-178.8" font-family="Helvetica,sans-Serif" font-size="11.00" fill="#000000">article_id</text>
<polygon fill="none" stroke="#000000" points="245,-171.7 245,-193.7 356,-193.7 356,-171.7 245,-171.7"/>
<text text-anchor="start" x="248" y="-179.4" font-family="Helvetica,sans-Serif" font-size="11.00" fill="#000000">int[10]</text>
<polygon fill="none" stroke="#000000" points="150,-149.7 150,-171.7 245,-171.7 245,-149.7 150,-149.7"/>
<text text-anchor="start" x="170" y="-156.8" font-family="Helvetica,sans-Serif" font-size="11.00" fill="#000000">contenu</text>
<polygon fill="none" stroke="#000000" points="245,-149.7 245,-171.7 356,-171.7 356,-149.7 245,-149.7"/>
<text text-anchor="start" x="247.6115" y="-157.4" font-family="Helvetica,sans-Serif" font-size="11.00" fill="#000000">longtext[2147483647]</text>
<polygon fill="none" stroke="#000000" points="150,-127.7 150,-149.7 245,-149.7 245,-127.7 150,-127.7"/>
<text text-anchor="start" x="170" y="-134.8" font-family="Helvetica,sans-Serif" font-size="11.00" fill="#000000">created_at</text>
<polygon fill="none" stroke="#000000" points="245,-127.7 245,-149.7 356,-149.7 356,-127.7 245,-127.7"/>
<text text-anchor="start" x="248" y="-135.4" font-family="Helvetica,sans-Serif" font-size="11.00" fill="#000000">datetime[19]</text>
<polygon fill="#ffffff" stroke="transparent" points="150,-105.7 150,-127.7 245,-127.7 245,-105.7 150,-105.7"/>
<polygon fill="none" stroke="#000000" points="150,-105.7 150,-127.7 245,-127.7 245,-105.7 150,-105.7"/>
<image xlink:href="../../images/foreignKeys.png" width="11px" height="12px" preserveAspectRatio="xMinYMin meet" x="155" y="-122.7"/>
<text text-anchor="start" x="170" y="-112.8" font-family="Helvetica,sans-Serif" font-size="11.00" fill="#000000">utilisateur_id</text>
<polygon fill="none" stroke="#000000" points="245,-105.7 245,-127.7 356,-127.7 356,-105.7 245,-105.7"/>
<text text-anchor="start" x="248" y="-113.4" font-family="Helvetica,sans-Serif" font-size="11.00" fill="#000000">int[10]</text>
<polygon fill="#ffffff" stroke="transparent" points="150,-86.7 150,-105.7 183,-105.7 183,-86.7 150,-86.7"/>
<polygon fill="none" stroke="#000000" points="150,-86.7 150,-105.7 183,-105.7 183,-86.7 150,-86.7"/>
<text text-anchor="start" x="153" y="-92.8" font-family="Helvetica,sans-Serif" font-size="11.00" fill="#000000">&lt; 2</text>
<polygon fill="#ffffff" stroke="transparent" points="183,-86.7 183,-105.7 245,-105.7 245,-86.7 183,-86.7"/>
<polygon fill="none" stroke="#000000" points="183,-86.7 183,-105.7 245,-105.7 245,-86.7 183,-86.7"/>
<text text-anchor="start" x="197.3807" y="-92.8" font-family="Helvetica,sans-Serif" font-size="11.00" fill="#000000">521 rows</text>
<polygon fill="#ffffff" stroke="transparent" points="245,-86.7 245,-105.7 356,-105.7 356,-86.7 245,-86.7"/>
<polygon fill="none" stroke="#000000" points="245,-86.7 245,-105.7 356,-105.7 356,-86.7 245,-86.7"/>
<text text-anchor="start" x="337.4053" y="-92.8" font-family="Helvetica,sans-Serif" font-size="11.00" fill="#000000">0 &gt;</text>
<polygon fill="none" stroke="#000000" stroke-width="2" points="149,-85.7 149,-239.7 357,-239.7 357,-85.7 149,-85.7"/>
</a>
</g>
</g>
<!-- article -->
<g id="node2" class="node">
<title>article</title>
<g id="a_node2"><a xlink:href="../../tables/article.html" xlink:title="article" target="_top">
<polygon fill="#ffffff" stroke="transparent" points="8,-142.2 8,-247.2 99,-247.2 99,-142.2 8,-142.2"/>
<polygon fill="#f5f5f5" stroke="transparent" points="8.5,-223.7 8.5,-246.7 99.5,-246.7 99.5,-223.7 8.5,-223.7"/>
<polygon fill="none" stroke="#000000" points="8.5,-223.7 8.5,-246.7 99.5,-246.7 99.5,-223.7 8.5,-223.7"/>
<text text-anchor="start" x="13.5" y="-232.8" font-family="Helvetica,sans-Serif" font-weight="bold" font-size="11.00" fill="#000000">article</text>
<text text-anchor="start" x="64.5437" y="-231.8" font-family="Helvetica,sans-Serif" font-size="11.00" fill="#000000">[table]</text>
<polygon fill="none" stroke="#000000" points="8.5,-201.7 8.5,-223.7 99.5,-223.7 99.5,-201.7 8.5,-201.7"/>
<image xlink:href="../../images/primaryKeys.png" width="11px" height="12px" preserveAspectRatio="xMinYMin meet" x="13.5" y="-218.7"/>
<text text-anchor="start" x="28.5" y="-208.8" font-family="Helvetica,sans-Serif" font-size="11.00" fill="#000000">id</text>
<polygon fill="#ffffff" stroke="transparent" points="8.5,-179.7 8.5,-201.7 99.5,-201.7 99.5,-179.7 8.5,-179.7"/>
<polygon fill="none" stroke="#000000" points="8.5,-179.7 8.5,-201.7 99.5,-201.7 99.5,-179.7 8.5,-179.7"/>
<image xlink:href="../../images/foreignKeys.png" width="11px" height="12px" preserveAspectRatio="xMinYMin meet" x="13.5" y="-196.7"/>
<text text-anchor="start" x="28.5" y="-186.8" font-family="Helvetica,sans-Serif" font-size="11.00" fill="#000000">categorie_id</text>
<polygon fill="none" stroke="#000000" points="8.5,-160.7 8.5,-179.7 99.5,-179.7 99.5,-160.7 8.5,-160.7"/>
<text text-anchor="start" x="11.5" y="-166.8" font-family="Helvetica,sans-Serif" font-size="11.00" fill="#000000">...</text>
<polygon fill="#ffffff" stroke="transparent" points="8.5,-141.7 8.5,-160.7 31.5,-160.7 31.5,-141.7 8.5,-141.7"/>
<polygon fill="none" stroke="#000000" points="8.5,-141.7 8.5,-160.7 31.5,-160.7 31.5,-141.7 8.5,-141.7"/>
<text text-anchor="start" x="11.5" y="-147.8" font-family="Helvetica,sans-Serif" font-size="11.00" fill="#000000">&lt; 1</text>
<polygon fill="#ffffff" stroke="transparent" points="31.5,-141.7 31.5,-160.7 76.5,-160.7 76.5,-141.7 31.5,-141.7"/>
<polygon fill="none" stroke="#000000" points="31.5,-141.7 31.5,-160.7 76.5,-160.7 76.5,-141.7 31.5,-141.7"/>
<text text-anchor="start" x="34.9956" y="-147.8" font-family="Helvetica,sans-Serif" font-size="11.00" fill="#000000">50 rows</text>
<polygon fill="#ffffff" stroke="transparent" points="76.5,-141.7 76.5,-160.7 99.5,-160.7 99.5,-141.7 76.5,-141.7"/>
<polygon fill="none" stroke="#000000" points="76.5,-141.7 76.5,-160.7 99.5,-160.7 99.5,-141.7 76.5,-141.7"/>
<text text-anchor="start" x="80.9053" y="-147.8" font-family="Helvetica,sans-Serif" font-size="11.00" fill="#000000">1 &gt;</text>
</a>
</g>
</g>
<!-- commentaire&#45;&gt;article -->
<g id="edge1" class="edge">
<title>commentaire:w&#45;&gt;article:e</title>
<path fill="none" stroke="#000000" d="M135.8928,-186.622C123.2418,-194.7538 119.6915,-212.7 99.5,-212.7"/>
<polygon fill="#000000" stroke="#000000" points="142.2923,-184.8429 150.9643,-186.1685 146.1462,-183.7714 150,-182.7 150,-182.7 150,-182.7 146.1462,-183.7714 149.0357,-179.2315 142.2923,-184.8429 142.2923,-184.8429"/>
<ellipse fill="none" stroke="#000000" cx="139.2092" cy="-185.7" rx="3.2" ry="3.2"/>
</g>
<!-- utilisateur -->
<g id="node3" class="node">
<title>utilisateur</title>
<g id="a_node3"><a xlink:href="../../tables/utilisateur.html" xlink:title="utilisateur" target="_top">
<polygon fill="#ffffff" stroke="transparent" points="8.5,-38.2 8.5,-121.2 98.5,-121.2 98.5,-38.2 8.5,-38.2"/>
<polygon fill="#f5f5f5" stroke="transparent" points="8.5,-97.7 8.5,-120.7 98.5,-120.7 98.5,-97.7 8.5,-97.7"/>
<polygon fill="none" stroke="#000000" points="8.5,-97.7 8.5,-120.7 98.5,-120.7 98.5,-97.7 8.5,-97.7"/>
<text text-anchor="start" x="13.471" y="-106.8" font-family="Helvetica,sans-Serif" font-weight="bold" font-size="11.00" fill="#000000">utilisateur</text>
<text text-anchor="start" x="64.0219" y="-105.8" font-family="Helvetica,sans-Serif" font-size="11.00" fill="#000000">[table]</text>
<polygon fill="none" stroke="#000000" points="8.5,-75.7 8.5,-97.7 98.5,-97.7 98.5,-75.7 8.5,-75.7"/>
<image xlink:href="../../images/primaryKeys.png" width="11px" height="12px" preserveAspectRatio="xMinYMin meet" x="13.5" y="-92.7"/>
<text text-anchor="start" x="34.5" y="-82.8" font-family="Helvetica,sans-Serif" font-size="11.00" fill="#000000">id</text>
<polygon fill="none" stroke="#000000" points="8.5,-56.7 8.5,-75.7 98.5,-75.7 98.5,-56.7 8.5,-56.7"/>
<text text-anchor="start" x="11.5" y="-62.8" font-family="Helvetica,sans-Serif" font-size="11.00" fill="#000000">...</text>
<polygon fill="#ffffff" stroke="transparent" points="8.5,-37.7 8.5,-56.7 26.5,-56.7 26.5,-37.7 8.5,-37.7"/>
<polygon fill="none" stroke="#000000" points="8.5,-37.7 8.5,-56.7 26.5,-56.7 26.5,-37.7 8.5,-37.7"/>
<text text-anchor="start" x="11.5" y="-43.8" font-family="Helvetica,sans-Serif" font-size="11.00" fill="#000000"> &#160;</text>
<polygon fill="#ffffff" stroke="transparent" points="26.5,-37.7 26.5,-56.7 73.5,-56.7 73.5,-37.7 26.5,-37.7"/>
<polygon fill="none" stroke="#000000" points="26.5,-37.7 26.5,-56.7 73.5,-56.7 73.5,-37.7 26.5,-37.7"/>
<text text-anchor="start" x="31.9956" y="-43.8" font-family="Helvetica,sans-Serif" font-size="11.00" fill="#000000">50 rows</text>
<polygon fill="#ffffff" stroke="transparent" points="73.5,-37.7 73.5,-56.7 98.5,-56.7 98.5,-37.7 73.5,-37.7"/>
<polygon fill="none" stroke="#000000" points="73.5,-37.7 73.5,-56.7 98.5,-56.7 98.5,-37.7 73.5,-37.7"/>
<text text-anchor="start" x="79.9053" y="-43.8" font-family="Helvetica,sans-Serif" font-size="11.00" fill="#000000">1 &gt;</text>
</a>
</g>
</g>
<!-- commentaire&#45;&gt;utilisateur -->
<g id="edge2" class="edge">
<title>commentaire:w&#45;&gt;utilisateur:e</title>
<path fill="none" stroke="#000000" d="M136.0458,-113.0214C122.8193,-105.0105 119.1947,-86.7 98.5,-86.7"/>
<polygon fill="#000000" stroke="#000000" points="142.2643,-114.6607 149.0823,-120.1811 146.1321,-115.6803 150,-116.7 150,-116.7 150,-116.7 146.1321,-115.6803 150.9177,-113.2189 142.2643,-114.6607 142.2643,-114.6607"/>
<ellipse fill="none" stroke="#000000" cx="139.17" cy="-113.8449" rx="3.2" ry="3.2"/>
</g>
</g>
</svg>
