<?xml version="1.0" encoding="UTF-8" standalone="no"?>
<!DOCTYPE svg PUBLIC "-//W3C//DTD SVG 1.1//EN"
 "http://www.w3.org/Graphics/SVG/1.1/DTD/svg11.dtd">
<!-- Generated by graphviz version 2.40.1 (20161225.0304)
 -->
<!-- Title: twoDegreesRelationshipsDiagram Pages: 1 -->
<svg width="511pt" height="259pt"
 viewBox="0.00 0.00 511.00 259.20" xmlns="http://www.w3.org/2000/svg" xmlns:xlink="http://www.w3.org/1999/xlink">
<g id="graph0" class="graph" transform="scale(1 1) rotate(0) translate(4 255.2)">
<title>twoDegreesRelationshipsDiagram</title>
<polygon fill="#ffffff" stroke="transparent" points="-4,4 -4,-255.2 507,-255.2 507,4 -4,4"/>
<text text-anchor="middle" x="72.4936" y="-7.3" font-family="Helvetica,sans-Serif" font-size="11.00" fill="#000000">Generated by SchemaSpy</text>
<!-- article -->
<g id="node1" class="node">
<title>article</title>
<g id="a_node1"><a xlink:href="../../tables/article.html" xlink:title="article" target="_top">
<polygon fill="#ffffff" stroke="transparent" points="145,-142.2 145,-247.2 236,-247.2 236,-142.2 145,-142.2"/>
<polygon fill="#f5f5f5" stroke="transparent" points="145.5,-223.7 145.5,-246.7 236.5,-246.7 236.5,-223.7 145.5,-223.7"/>
<polygon fill="none" stroke="#000000" points="145.5,-223.7 145.5,-246.7 236.5,-246.7 236.5,-223.7 145.5,-223.7"/>
<text text-anchor="start" x="150.5" y="-232.8" font-family="Helvetica,sans-Serif" font-weight="bold" font-size="11.00" fill="#000000">article</text>
<text text-anchor="start" x="201.5437" y="-231.8" font-family="Helvetica,sans-Serif" font-size="11.00" fill="#000000">[table]</text>
<polygon fill="none" stroke="#000000" points="145.5,-201.7 145.5,-223.7 236.5,-223.7 236.5,-201.7 145.5,-201.7"/>
<image xlink:href="../../images/primaryKeys.png" width="11px" height="12px" preserveAspectRatio="xMinYMin meet" x="150.5" y="-218.7"/>
<text text-anchor="start" x="165.5" y="-208.8" font-family="Helvetica,sans-Serif" font-size="11.00" fill="#000000">id</text>
<polygon fill="#ffffff" stroke="transparent" points="145.5,-179.7 145.5,-201.7 236.5,-201.7 236.5,-179.7 145.5,-179.7"/>
<polygon fill="none" stroke="#000000" points="145.5,-179.7 145.5,-201.7 236.5,-201.7 236.5,-179.7 145.5,-179.7"/>
<image xlink:href="../../images/foreignKeys.png" width="11px" height="12px" preserveAspectRatio="xMinYMin meet" x="150.5" y="-196.7"/>
<text text-anchor="start" x="165.5" y="-186.8" font-family="Helvetica,sans-Serif" font-size="11.00" fill="#000000">categorie_id</text>
<polygon fill="none" stroke="#000000" points="145.5,-160.7 145.5,-179.7 236.5,-179.7 236.5,-160.7 145.5,-160.7"/>
<text text-anchor="start" x="148.5" y="-166.8" font-family="Helvetica,sans-Serif" font-size="11.00" fill="#000000">...</text>
<polygon fill="#ffffff" stroke="transparent" points="145.5,-141.7 145.5,-160.7 168.5,-160.7 168.5,-141.7 145.5,-141.7"/>
<polygon fill="none" stroke="#000000" points="145.5,-141.7 145.5,-160.7 168.5,-160.7 168.5,-141.7 145.5,-141.7"/>
<text text-anchor="start" x="148.5" y="-147.8" font-family="Helvetica,sans-Serif" font-size="11.00" fill="#000000">&lt; 1</text>
<polygon fill="#ffffff" stroke="transparent" points="168.5,-141.7 168.5,-160.7 213.5,-160.7 213.5,-141.7 168.5,-141.7"/>
<polygon fill="none" stroke="#000000" points="168.5,-141.7 168.5,-160.7 213.5,-160.7 213.5,-141.7 168.5,-141.7"/>
<text text-anchor="start" x="171.9956" y="-147.8" font-family="Helvetica,sans-Serif" font-size="11.00" fill="#000000">50 rows</text>
<polygon fill="#ffffff" stroke="transparent" points="213.5,-141.7 213.5,-160.7 236.5,-160.7 236.5,-141.7 213.5,-141.7"/>
<polygon fill="none" stroke="#000000" points="213.5,-141.7 213.5,-160.7 236.5,-160.7 236.5,-141.7 213.5,-141.7"/>
<text text-anchor="start" x="217.9053" y="-147.8" font-family="Helvetica,sans-Serif" font-size="11.00" fill="#000000">1 &gt;</text>
</a>
</g>
</g>
<!-- categorie -->
<g id="node2" class="node">
<title>categorie</title>
<g id="a_node2"><a xlink:href="../../tables/categorie.html" xlink:title="categorie" target="_top">
<polygon fill="#ffffff" stroke="transparent" points="8,-163.2 8,-224.2 96,-224.2 96,-163.2 8,-163.2"/>
<polygon fill="#f5f5f5" stroke="transparent" points="8,-200.7 8,-223.7 96,-223.7 96,-200.7 8,-200.7"/>
<polygon fill="none" stroke="#000000" points="8,-200.7 8,-223.7 96,-223.7 96,-200.7 8,-200.7"/>
<text text-anchor="start" x="12.8829" y="-209.8" font-family="Helvetica,sans-Serif" font-weight="bold" font-size="11.00" fill="#000000">categorie</text>
<text text-anchor="start" x="61.5219" y="-208.8" font-family="Helvetica,sans-Serif" font-size="11.00" fill="#000000">[table]</text>
<polygon fill="none" stroke="#000000" points="8,-181.7 8,-200.7 96,-200.7 96,-181.7 8,-181.7"/>
<text text-anchor="start" x="11" y="-187.8" font-family="Helvetica,sans-Serif" font-size="11.00" fill="#000000">...</text>
<polygon fill="#ffffff" stroke="transparent" points="8,-162.7 8,-181.7 28,-181.7 28,-162.7 8,-162.7"/>
<polygon fill="none" stroke="#000000" points="8,-162.7 8,-181.7 28,-181.7 28,-162.7 8,-162.7"/>
<text text-anchor="start" x="11" y="-168.8" font-family="Helvetica,sans-Serif" font-size="11.00" fill="#000000"> &#160;</text>
<polygon fill="#ffffff" stroke="transparent" points="28,-162.7 28,-181.7 70,-181.7 70,-162.7 28,-162.7"/>
<polygon fill="none" stroke="#000000" points="28,-162.7 28,-181.7 70,-181.7 70,-162.7 28,-162.7"/>
<text text-anchor="start" x="34.6105" y="-168.8" font-family="Helvetica,sans-Serif" font-size="11.00" fill="#000000">9 rows</text>
<polygon fill="#ffffff" stroke="transparent" points="70,-162.7 70,-181.7 96,-181.7 96,-162.7 70,-162.7"/>
<polygon fill="none" stroke="#000000" points="70,-162.7 70,-181.7 96,-181.7 96,-162.7 70,-162.7"/>
<text text-anchor="start" x="77.4053" y="-168.8" font-family="Helvetica,sans-Serif" font-size="11.00" fill="#000000">1 &gt;</text>
</a>
</g>
</g>
<!-- article&#45;&gt;categorie -->
<g id="edge1" class="edge">
<title>article:w&#45;&gt;categorie:e</title>
<path fill="none" stroke="#000000" d="M130.8428,-190.7C119.4139,-190.7 112.1563,-190.7 96,-190.7"/>
<polygon fill="#000000" stroke="#000000" points="137.5,-190.7001 145.5,-194.3 141.5,-190.7 145.5,-190.7 145.5,-190.7 145.5,-190.7 141.5,-190.7 145.5,-187.1 137.5,-190.7001 137.5,-190.7001"/>
<ellipse fill="none" stroke="#000000" cx="134.3" cy="-190.7001" rx="3.2" ry="3.2"/>
</g>
<!-- commentaire -->
<g id="node3" class="node">
<title>commentaire</title>
<g id="a_node3"><a xlink:href="../../tables/commentaire.html" xlink:title="commentaire" target="_top">
<polygon fill="#ffffff" stroke="transparent" points="285,-84.7 285,-240.7 495,-240.7 495,-84.7 285,-84.7"/>
<polygon fill="#f5f5f5" stroke="transparent" points="287,-215.7 287,-238.7 493,-238.7 493,-215.7 287,-215.7"/>
<polygon fill="none" stroke="#000000" points="287,-215.7 287,-238.7 493,-238.7 493,-215.7 287,-215.7"/>
<text text-anchor="start" x="292" y="-224.8" font-family="Helvetica,sans-Serif" font-weight="bold" font-size="11.00" fill="#000000">commentaire</text>
<text text-anchor="start" x="458.0437" y="-223.8" font-family="Helvetica,sans-Serif" font-size="11.00" fill="#000000">[table]</text>
<polygon fill="none" stroke="#000000" points="287,-193.7 287,-215.7 382,-215.7 382,-193.7 287,-193.7"/>
<image xlink:href="../../images/primaryKeys.png" width="11px" height="12px" preserveAspectRatio="xMinYMin meet" x="292" y="-210.7"/>
<text text-anchor="start" x="307" y="-200.8" font-family="Helvetica,sans-Serif" font-size="11.00" fill="#000000">id</text>
<polygon fill="none" stroke="#000000" points="382,-193.7 382,-215.7 493,-215.7 493,-193.7 382,-193.7"/>
<text text-anchor="start" x="385" y="-201.4" font-family="Helvetica,sans-Serif" font-size="11.00" fill="#000000">int[10]</text>
<polygon fill="#ffffff" stroke="transparent" points="287,-171.7 287,-193.7 382,-193.7 382,-171.7 287,-171.7"/>
<polygon fill="none" stroke="#000000" points="287,-171.7 287,-193.7 382,-193.7 382,-171.7 287,-171.7"/>
<image xlink:href="../../images/foreignKeys.png" width="11px" height="12px" preserveAspectRatio="xMinYMin meet" x="292" y="-188.7"/>
<text text-anchor="start" x="307" y="-178.8" font-family="Helvetica,sans-Serif" font-size="11.00" fill="#000000">article_id</text>
<polygon fill="none" stroke="#000000" points="382,-171.7 382,-193.7 493,-193.7 493,-171.7 382,-171.7"/>
<text text-anchor="start" x="385" y="-179.4" font-family="Helvetica,sans-Serif" font-size="11.00" fill="#000000">int[10]</text>
<polygon fill="none" stroke="#000000" points="287,-149.7 287,-171.7 382,-171.7 382,-149.7 287,-149.7"/>
<text text-anchor="start" x="307" y="-156.8" font-family="Helvetica,sans-Serif" font-size="11.00" fill="#000000">contenu</text>
<polygon fill="none" stroke="#000000" points="382,-149.7 382,-171.7 493,-171.7 493,-149.7 382,-149.7"/>
<text text-anchor="start" x="384.6115" y="-157.4" font-family="Helvetica,sans-Serif" font-size="11.00" fill="#000000">longtext[2147483647]</text>
<polygon fill="none" stroke="#000000" points="287,-127.7 287,-149.7 382,-149.7 382,-127.7 287,-127.7"/>
<text text-anchor="start" x="307" y="-134.8" font-family="Helvetica,sans-Serif" font-size="11.00" fill="#000000">created_at</text>
<polygon fill="none" stroke="#000000" points="382,-127.7 382,-149.7 493,-149.7 493,-127.7 382,-127.7"/>
<text text-anchor="start" x="385" y="-135.4" font-family="Helvetica,sans-Serif" font-size="11.00" fill="#000000">datetime[19]</text>
<polygon fill="#ffffff" stroke="transparent" points="287,-105.7 287,-127.7 382,-127.7 382,-105.7 287,-105.7"/>
<polygon fill="none" stroke="#000000" points="287,-105.7 287,-127.7 382,-127.7 382,-105.7 287,-105.7"/>
<image xlink:href="../../images/foreignKeys.png" width="11px" height="12px" preserveAspectRatio="xMinYMin meet" x="292" y="-122.7"/>
<text text-anchor="start" x="307" y="-112.8" font-family="Helvetica,sans-Serif" font-size="11.00" fill="#000000">utilisateur_id</text>
<polygon fill="none" stroke="#000000" points="382,-105.7 382,-127.7 493,-127.7 493,-105.7 382,-105.7"/>
<text text-anchor="start" x="385" y="-113.4" font-family="Helvetica,sans-Serif" font-size="11.00" fill="#000000">int[10]</text>
<polygon fill="#ffffff" stroke="transparent" points="287,-86.7 287,-105.7 320,-105.7 320,-86.7 287,-86.7"/>
<polygon fill="none" stroke="#000000" points="287,-86.7 287,-105.7 320,-105.7 320,-86.7 287,-86.7"/>
<text text-anchor="start" x="290" y="-92.8" font-family="Helvetica,sans-Serif" font-size="11.00" fill="#000000">&lt; 2</text>
<polygon fill="#ffffff" stroke="transparent" points="320,-86.7 320,-105.7 382,-105.7 382,-86.7 320,-86.7"/>
<polygon fill="none" stroke="#000000" points="320,-86.7 320,-105.7 382,-105.7 382,-86.7 320,-86.7"/>
<text text-anchor="start" x="334.3807" y="-92.8" font-family="Helvetica,sans-Serif" font-size="11.00" fill="#000000">521 rows</text>
<polygon fill="#ffffff" stroke="transparent" points="382,-86.7 382,-105.7 493,-105.7 493,-86.7 382,-86.7"/>
<polygon fill="none" stroke="#000000" points="382,-86.7 382,-105.7 493,-105.7 493,-86.7 382,-86.7"/>
<text text-anchor="start" x="474.4053" y="-92.8" font-family="Helvetica,sans-Serif" font-size="11.00" fill="#000000">0 &gt;</text>
<polygon fill="none" stroke="#000000" stroke-width="2" points="286,-85.7 286,-239.7 494,-239.7 494,-85.7 286,-85.7"/>
</a>
</g>
</g>
<!-- commentaire&#45;&gt;article -->
<g id="edge2" class="edge">
<title>commentaire:w&#45;&gt;article:e</title>
<path fill="none" stroke="#000000" d="M272.8928,-186.622C260.2418,-194.7538 256.6915,-212.7 236.5,-212.7"/>
<polygon fill="#000000" stroke="#000000" points="279.2923,-184.8429 287.9643,-186.1685 283.1462,-183.7714 287,-182.7 287,-182.7 287,-182.7 283.1462,-183.7714 286.0357,-179.2315 279.2923,-184.8429 279.2923,-184.8429"/>
<ellipse fill="none" stroke="#000000" cx="276.2092" cy="-185.7" rx="3.2" ry="3.2"/>
</g>
<!-- utilisateur -->
<g id="node4" class="node">
<title>utilisateur</title>
<g id="a_node4"><a xlink:href="../../tables/utilisateur.html" xlink:title="utilisateur" target="_top">
<polygon fill="#ffffff" stroke="transparent" points="145.5,-38.2 145.5,-121.2 235.5,-121.2 235.5,-38.2 145.5,-38.2"/>
<polygon fill="#f5f5f5" stroke="transparent" points="145.5,-97.7 145.5,-120.7 235.5,-120.7 235.5,-97.7 145.5,-97.7"/>
<polygon fill="none" stroke="#000000" points="145.5,-97.7 145.5,-120.7 235.5,-120.7 235.5,-97.7 145.5,-97.7"/>
<text text-anchor="start" x="150.471" y="-106.8" font-family="Helvetica,sans-Serif" font-weight="bold" font-size="11.00" fill="#000000">utilisateur</text>
<text text-anchor="start" x="201.0219" y="-105.8" font-family="Helvetica,sans-Serif" font-size="11.00" fill="#000000">[table]</text>
<polygon fill="none" stroke="#000000" points="145.5,-75.7 145.5,-97.7 235.5,-97.7 235.5,-75.7 145.5,-75.7"/>
<image xlink:href="../../images/primaryKeys.png" width="11px" height="12px" preserveAspectRatio="xMinYMin meet" x="150.5" y="-92.7"/>
<text text-anchor="start" x="171.5" y="-82.8" font-family="Helvetica,sans-Serif" font-size="11.00" fill="#000000">id</text>
<polygon fill="none" stroke="#000000" points="145.5,-56.7 145.5,-75.7 235.5,-75.7 235.5,-56.7 145.5,-56.7"/>
<text text-anchor="start" x="148.5" y="-62.8" font-family="Helvetica,sans-Serif" font-size="11.00" fill="#000000">...</text>
<polygon fill="#ffffff" stroke="transparent" points="145.5,-37.7 145.5,-56.7 163.5,-56.7 163.5,-37.7 145.5,-37.7"/>
<polygon fill="none" stroke="#000000" points="145.5,-37.7 145.5,-56.7 163.5,-56.7 163.5,-37.7 145.5,-37.7"/>
<text text-anchor="start" x="148.5" y="-43.8" font-family="Helvetica,sans-Serif" font-size="11.00" fill="#000000"> &#160;</text>
<polygon fill="#ffffff" stroke="transparent" points="163.5,-37.7 163.5,-56.7 210.5,-56.7 210.5,-37.7 163.5,-37.7"/>
<polygon fill="none" stroke="#000000" points="163.5,-37.7 163.5,-56.7 210.5,-56.7 210.5,-37.7 163.5,-37.7"/>
<text text-anchor="start" x="168.9956" y="-43.8" font-family="Helvetica,sans-Serif" font-size="11.00" fill="#000000">50 rows</text>
<polygon fill="#ffffff" stroke="transparent" points="210.5,-37.7 210.5,-56.7 235.5,-56.7 235.5,-37.7 210.5,-37.7"/>
<polygon fill="none" stroke="#000000" points="210.5,-37.7 210.5,-56.7 235.5,-56.7 235.5,-37.7 210.5,-37.7"/>
<text text-anchor="start" x="216.9053" y="-43.8" font-family="Helvetica,sans-Serif" font-size="11.00" fill="#000000">1 &gt;</text>
</a>
</g>
</g>
<!-- commentaire&#45;&gt;utilisateur -->
<g id="edge3" class="edge">
<title>commentaire:w&#45;&gt;utilisateur:e</title>
<path fill="none" stroke="#000000" d="M273.0458,-113.0214C259.8193,-105.0105 256.1947,-86.7 235.5,-86.7"/>
<polygon fill="#000000" stroke="#000000" points="279.2643,-114.6607 286.0823,-120.1811 283.1321,-115.6803 287,-116.7 287,-116.7 287,-116.7 283.1321,-115.6803 287.9177,-113.2189 279.2643,-114.6607 279.2643,-114.6607"/>
<ellipse fill="none" stroke="#000000" cx="276.17" cy="-113.8449" rx="3.2" ry="3.2"/>
</g>
</g>
</svg>
